<?xml version="1.0" encoding="utf-8"?>
<!-- Generator: Adobe Illustrator 28.2.0, SVG Export Plug-In . SVG Version: 6.00 Build 0)  -->
<svg version="1.1" id="Layer_1" xmlns="http://www.w3.org/2000/svg" xmlns:xlink="http://www.w3.org/1999/xlink" x="0px" y="0px"
	 viewBox="0 0 400 400" style="enable-background:new 0 0 400 400;" xml:space="preserve">
<style type="text/css">
	
		.st0{clip-path:url(#SVGID_00000011726717927503791700000017971705208203608758_);fill:url(#SVGID_00000139255246496510036120000006043154158138523054_);}
	
		.st1{clip-path:url(#SVGID_00000172412233509391766210000001860301294003240092_);fill:url(#SVGID_00000048471141873818557110000007113447695793970604_);}
</style>
<g>
	<defs>
		<path id="SVGID_1_" d="M21.1,138v124.9c0,23.8,15.1,49.8,35.6,61.7l54.1,31.2l54.1,31.2c20.6,11.9,50.7,11.9,71.3,0l54.1-31.2
			l54.1-31.2c19.7-11.4,34.4-35.8,35.6-58.8c-4.1,15-14.4,29.2-27.3,36.6l-44.4,25.7l-44.4,25.6c-16.9,9.8-41.7,9.8-58.6,0
			l-44.4-25.6l-44.4-25.7C99.4,292.6,87,271.2,87,251.7v-51.3v-51.3c0-19.5,12.4-40.9,29.3-50.7l44.4-25.7l44.4-25.7
			c16.9-9.8,41.6-9.8,58.5,0l44.4,25.7l44.4,25.7c12.9,7.4,23.1,21.6,27.3,36.6c-1.2-22.9-15.8-47.4-35.6-58.8L290.2,45l-54.1-31.2
			c-20.6-11.9-50.7-11.9-71.3,0L110.8,45L56.8,76.2C36.2,88.1,21.1,114.2,21.1,138"/>
	</defs>
	<clipPath id="SVGID_00000164496693347640619730000015327600932650645946_">
		<use xlink:href="#SVGID_1_"  style="overflow:visible;"/>
	</clipPath>
	
		<linearGradient id="SVGID_00000099623367004459761130000001175826557146618003_" gradientUnits="userSpaceOnUse" x1="153.2634" y1="100.5505" x2="298.9679" y2="408.5088">
		<stop  offset="0" style="stop-color:#14AC53"/>
		<stop  offset="1" style="stop-color:#FBD766"/>
	</linearGradient>
	
		<rect x="21.1" y="1.9" style="clip-path:url(#SVGID_00000164496693347640619730000015327600932650645946_);fill:url(#SVGID_00000099623367004459761130000001175826557146618003_);" width="358.7" height="396.9"/>
</g>
<g>
	<defs>
		<path id="SVGID_00000132782882292312234610000004117473251075078555_" d="M339.2,146l-0.2,19.4c0.6,53.9-1.8,98.3-80.7,139.7
			L239,315.3l-20.7-10.2c-69.9-40-78.4-73.4-80.7-139.7l-0.2-19.9c30-25,66.2-42.9,101.5-60C273.6,103.2,309.7,120.6,339.2,146z"/>
	</defs>
	<clipPath id="SVGID_00000074418746409282093280000013627395551267074230_">
		<use xlink:href="#SVGID_00000132782882292312234610000004117473251075078555_"  style="overflow:visible;"/>
	</clipPath>
	
		<linearGradient id="SVGID_00000073714773471546318410000004866009736020811432_" gradientUnits="userSpaceOnUse" x1="255.9009" y1="272.3776" x2="205.0578" y2="61.5837">
		<stop  offset="0" style="stop-color:#14AC53"/>
		<stop  offset="1" style="stop-color:#FBD766"/>
	</linearGradient>
	
		<rect x="137.4" y="85.4" style="clip-path:url(#SVGID_00000074418746409282093280000013627395551267074230_);fill:url(#SVGID_00000073714773471546318410000004866009736020811432_);" width="202.2" height="229.8"/>
</g>
</svg>
