<?xml version="1.0" encoding="utf-8"?>
<!-- Generator: Adobe Illustrator 28.2.0, SVG Export Plug-In . SVG Version: 6.00 Build 0)  -->
<svg version="1.1" id="Layer_1" xmlns="http://www.w3.org/2000/svg" xmlns:xlink="http://www.w3.org/1999/xlink" x="0px" y="0px"
	 viewBox="0 0 9729 1973" style="enable-background:new 0 0 9729 1973;" xml:space="preserve">
<style type="text/css">
	.st0{fill:#14AC53;}
	
		.st1{clip-path:url(#SVGID_00000129206352417186337330000007220104139423906471_);fill:url(#SVGID_00000126288485072989370530000014803798119013173931_);}
	
		.st2{clip-path:url(#SVGID_00000162341159867735634470000015792003204509928112_);fill:url(#SVGID_00000032640737600208825460000016825361235964157083_);}
</style>
<g>
	<path class="st0" d="M8821.2,1545.7V427.3h274.9v873.4h469.7v245H8821.2z M8202.3,851.4l-100.5,298.4h194.8L8202.3,851.4z
		 M8420.6,1545.7l-51.8-166.5h-344l-55,166.5h-287.4l406.8-1118.4h212.1l406.8,1118.4H8420.6z M7328.9,1545.7l-358.1-562.3v562.3
		h-274.9V427.3h240.3l358.1,562.3V427.3h274.9v1118.4H7328.9z M6194.8,1545.7V427.3h274.9v1118.4H6194.8z M5759.7,672.3v873.4
		h-274.9V672.3H5210v-245h824.7v245H5759.7z M4682.2,673.9h-155.5v226.2h155.5c36.6,0,65.7-11.3,87.2-33.8
		c21.5-22.5,32.2-48.9,32.2-79.3c0-30.4-10.7-56.8-32.2-79.3C4747.9,685.2,4718.8,673.9,4682.2,673.9z M4817.3,1545.7l-197.9-416.2
		h-92.7v416.2h-274.9V427.3h443c119.4,0,212.8,35.3,280.4,106c67.5,70.7,101.3,155.2,101.3,253.7c0,70.1-17.8,130.1-53.4,179.8
		c-35.6,49.8-78.5,87.2-128.8,112.3l241.9,466.5H4817.3z M3296.7,1545.7V427.3H4057v245h-485.4v186.9h414.7v245.1h-414.7v196.3H4057
		v245H3296.7z M2728.1,1555.1c-123.6,0-219.4-34-287.5-102.1c-68.1-68.1-107.9-134.3-119.4-198.7c-11.5-64.4-17.3-153.7-17.3-267.8
		c0-119.4,5.5-209.7,16.5-270.9c11-61.3,40.1-115.5,87.2-162.6c47.1-47.1,96.6-81.4,148.4-102.9c51.8-21.5,109.2-32.2,172-32.2
		c109.9,0,203.1,31.9,279.6,95.8c76.4,63.9,124.6,157.6,144.5,281.2h-279.6c-10.5-41.6-26.2-74.1-47.1-97.1
		c-20.9-23.3-52.9-34.8-95.8-34.8c-25.1,0-46.6,3.9-64.4,11.8c-17.8,7.9-33,20.2-45.5,36.9c-12.6,16.7-22.5,43.7-29.8,80.9
		c-7.3,37.2-11,101.8-11,194c0,95.3,3.1,160,9.4,194c6.3,34,19.4,64.2,39.3,90.3c19.9,26.2,53.9,39.3,102.1,39.3
		c41.9,0,73.6-9.7,95-28.8c21.5-19.1,37.5-45.3,47.9-78h279.6c-19.9,115.2-67.8,202.7-143.7,262.3
		C2932.6,1525.3,2839.1,1555.1,2728.1,1555.1z"/>
	<g>
		<defs>
			<path id="SVGID_1_" d="M163.3,689.7v593.6c0,112.9,71.6,236.9,169.4,293.4l257.1,148.4l257.1,148.4c97.8,56.5,241,56.5,338.7,0
				l257-148.4l257.1-148.4c93.7-54.1,163.4-170.3,169-279.3c-19.7,71.2-68.4,138.7-129.7,174.1l-211.2,122l-211.2,121.9
				c-80.4,46.4-198,46.4-278.3,0L827,1593.4l-211.2-122c-80.4-46.4-139.2-148.3-139.2-241V986.5V742.6c0-92.8,58.8-194.6,139.2-241
				l211.2-122l211.2-121.9c80.3-46.4,198-46.4,278.3,0l211.2,121.9l211.2,122c61.2,35.3,109.9,102.9,129.7,174.1
				c-5.6-109-75.2-225.2-169-279.4l-257.1-148.4l-257-148.4c-97.8-56.4-241-56.4-338.8,0L589.7,247.9L332.6,396.3
				C234.8,452.8,163.3,576.8,163.3,689.7"/>
		</defs>
		<clipPath id="SVGID_00000123428417563852309500000011544404102285917572_">
			<use xlink:href="#SVGID_1_"  style="overflow:visible;"/>
		</clipPath>
		
			<linearGradient id="SVGID_00000067919883611801334080000014107909414245954975_" gradientUnits="userSpaceOnUse" x1="791.3978" y1="511.8966" x2="1484.0375" y2="1975.8474">
			<stop  offset="0" style="stop-color:#14AC53"/>
			<stop  offset="1" style="stop-color:#FBD766"/>
		</linearGradient>
		
			<rect x="163.3" y="43" style="clip-path:url(#SVGID_00000123428417563852309500000011544404102285917572_);fill:url(#SVGID_00000067919883611801334080000014107909414245954975_);" width="1705.4" height="1886.9"/>
	</g>
	<g>
		<defs>
			<path id="SVGID_00000105411711675723056410000014135831831804136121_" d="M1675.4,727.9l-1.1,92c3,256.4-8.3,467.1-383.5,664.3
				l-91.9,48.3l-98.2-48.3c-332.2-190-372.7-349-383.6-664.3l-1-94.6c142.8-118.6,314.6-204.1,482.3-285.4
				C1363.6,524.6,1535.3,607.3,1675.4,727.9z"/>
		</defs>
		<clipPath id="SVGID_00000098203642501713847590000007031954348270403214_">
			<use xlink:href="#SVGID_00000105411711675723056410000014135831831804136121_"  style="overflow:visible;"/>
		</clipPath>
		
			<linearGradient id="SVGID_00000026150505938747832150000015420614925434599093_" gradientUnits="userSpaceOnUse" x1="1279.3087" y1="1328.7164" x2="1037.6144" y2="326.6588">
			<stop  offset="0" style="stop-color:#14AC53"/>
			<stop  offset="1" style="stop-color:#FBD766"/>
		</linearGradient>
		
			<rect x="716.1" y="439.9" style="clip-path:url(#SVGID_00000098203642501713847590000007031954348270403214_);fill:url(#SVGID_00000026150505938747832150000015420614925434599093_);" width="961.2" height="1092.6"/>
	</g>
</g>
</svg>
